REM DIRINDEX 1\2\4,1\2\5,1\3\6,1\3\7,1\3\8
REM DIRNAME cjc094,folder01,folder02,folder03,folder04,folder05,folder06,folder07
TITLE ""
FILE "LV3_043_WORDS.mp3" MP3
  TRACK 01 AUDIO
    TITLE "0:"
    INDEX 01 00:00:00
  TRACK 02 AUDIO
    TITLE "6:cjc094_1582"
    INDEX 01 00:00:03
  TRACK 03 AUDIO
    TITLE "0:"
    INDEX 01 00:02:26
  TRACK 04 AUDIO
    TITLE "7:cjc094_1583"
    INDEX 01 00:03:06
  TRACK 05 AUDIO
    TITLE "0:"
    INDEX 01 00:04:38
  TRACK 06 AUDIO
    TITLE "8:cjc094_1584"
    INDEX 01 00:04:56
  TRACK 07 AUDIO
    TITLE "0:"
    INDEX 01 00:06:12
  TRACK 08 AUDIO
    TITLE "7:cjc094_1585"
    INDEX 01 00:06:63
  TRACK 09 AUDIO
    TITLE "0:"
    INDEX 01 00:07:62
  TRACK 10 AUDIO
    TITLE "8:cjc094_1586"
    INDEX 01 00:08:09
  TRACK 11 AUDIO
    TITLE "0:"
    INDEX 01 00:10:00
  TRACK 12 AUDIO
    TITLE "7:cjc094_1587"
    INDEX 01 00:10:47
  TRACK 13 AUDIO
    TITLE "0:"
    INDEX 01 00:12:09
  TRACK 14 AUDIO
    TITLE "8:cjc094_1588"
    INDEX 01 00:12:28
  TRACK 15 AUDIO
    TITLE "0:"
    INDEX 01 00:13:69
  TRACK 16 AUDIO
    TITLE "7:cjc094_1589"
    INDEX 01 00:14:45
  TRACK 17 AUDIO
    TITLE "0:"
    INDEX 01 00:15:66
  TRACK 18 AUDIO
    TITLE "8:cjc094_1590"
    INDEX 01 00:16:06
  TRACK 19 AUDIO
    TITLE "0:"
    INDEX 01 00:18:60
  TRACK 20 AUDIO
    TITLE "7:cjc094_1591"
    INDEX 01 00:19:32
  TRACK 21 AUDIO
    TITLE "0:"
    INDEX 01 00:20:36
  TRACK 22 AUDIO
    TITLE "8:cjc094_1592"
    INDEX 01 00:20:55
  TRACK 23 AUDIO
    TITLE "0:"
    INDEX 01 00:21:51
  TRACK 24 AUDIO
    TITLE "7:cjc094_1593"
    INDEX 01 00:22:42
  TRACK 25 AUDIO
    TITLE "0:"
    INDEX 01 00:23:46
  TRACK 26 AUDIO
    TITLE "8:cjc094_1594"
    INDEX 01 00:23:67
  TRACK 27 AUDIO
    TITLE "0:"
    INDEX 01 00:25:50
  TRACK 28 AUDIO
    TITLE "7:cjc094_1595"
    INDEX 01 00:26:24
  TRACK 29 AUDIO
    TITLE "0:"
    INDEX 01 00:27:43
  TRACK 30 AUDIO
    TITLE "8:cjc094_1596"
    INDEX 01 00:27:63
  TRACK 31 AUDIO
    TITLE "0:"
    INDEX 01 00:28:70
  TRACK 32 AUDIO
    TITLE "7:cjc094_1597"
    INDEX 01 00:29:50
  TRACK 33 AUDIO
    TITLE "0:"
    INDEX 01 00:30:71
  TRACK 34 AUDIO
    TITLE "8:cjc094_1598"
    INDEX 01 00:31:16
  TRACK 35 AUDIO
    TITLE "0:"
    INDEX 01 00:33:05
  TRACK 36 AUDIO
    TITLE "7:cjc094_1599"
    INDEX 01 00:33:60
  TRACK 37 AUDIO
    TITLE "0:"
    INDEX 01 00:34:55
  TRACK 38 AUDIO
    TITLE "8:cjc094_1600"
    INDEX 01 00:34:71
  TRACK 39 AUDIO
    TITLE "0:"
    INDEX 01 00:37:59
  TRACK 40 AUDIO
    TITLE "7:cjc094_1601"
    INDEX 01 00:38:37
  TRACK 41 AUDIO
    TITLE "0:"
    INDEX 01 00:39:37
  TRACK 42 AUDIO
    TITLE "8:cjc094_1602"
    INDEX 01 00:39:56
  TRACK 43 AUDIO
    TITLE "0:"
    INDEX 01 00:41:26
  TRACK 44 AUDIO
    TITLE "7:cjc094_1603"
    INDEX 01 00:41:71
  TRACK 45 AUDIO
    TITLE "0:"
    INDEX 01 00:42:63
  TRACK 46 AUDIO
    TITLE "8:cjc094_1604"
    INDEX 01 00:43:05
  TRACK 47 AUDIO
    TITLE "0:"
    INDEX 01 00:44:26
  TRACK 48 AUDIO
    TITLE "7:cjc094_1605"
    INDEX 01 00:45:04
  TRACK 49 AUDIO
    TITLE "0:"
    INDEX 01 00:46:51
  TRACK 50 AUDIO
    TITLE "8:cjc094_1606"
    INDEX 01 00:46:70
  TRACK 51 AUDIO
    TITLE "0:"
    INDEX 01 00:48:49
  TRACK 52 AUDIO
    TITLE "7:cjc094_1607"
    INDEX 01 00:49:20
  TRACK 53 AUDIO
    TITLE "0:"
    INDEX 01 00:50:29
  TRACK 54 AUDIO
    TITLE "8:cjc094_1608"
    INDEX 01 00:50:46
  TRACK 55 AUDIO
    TITLE "0:"
    INDEX 01 00:52:36
  TRACK 56 AUDIO
    TITLE "7:cjc094_1609"
    INDEX 01 00:53:13
  TRACK 57 AUDIO
    TITLE "0:"
    INDEX 01 00:54:27
  TRACK 58 AUDIO
    TITLE "8:cjc094_1610"
    INDEX 01 00:54:46
  TRACK 59 AUDIO
    TITLE "0:"
    INDEX 01 00:55:63
  TRACK 60 AUDIO
    TITLE "7:cjc094_1611"
    INDEX 01 00:56:35
  TRACK 61 AUDIO
    TITLE "0:"
    INDEX 01 00:57:58
  TRACK 62 AUDIO
    TITLE "8:cjc094_1612"
    INDEX 01 00:58:01
  TRACK 63 AUDIO
    TITLE "0:"
    INDEX 01 01:02:10
  TRACK 64 AUDIO
    TITLE "7:cjc094_1613"
    INDEX 01 01:02:67
  TRACK 65 AUDIO
    TITLE "0:"
    INDEX 01 01:04:09
  TRACK 66 AUDIO
    TITLE "8:cjc094_1614"
    INDEX 01 01:04:27
  TRACK 67 AUDIO
    TITLE "0:"
    INDEX 01 01:08:21
  TRACK 68 AUDIO
    TITLE "7:cjc094_1615"
    INDEX 01 01:08:62
  TRACK 69 AUDIO
    TITLE "0:"
    INDEX 01 01:10:30
  TRACK 70 AUDIO
    TITLE "8:cjc094_1616"
    INDEX 01 01:10:47
  TRACK 71 AUDIO
    TITLE "0:"
    INDEX 01 01:12:17
